<svg width="778" height="364" viewBox="0 0 778 364" fill="none" xmlns="http://www.w3.org/2000/svg">
<rect x="120" y="144" width="45" height="61" fill="white"/>
<path d="M111.5 97L171 81.5L207 86.7642L229 119.5L246.226 92.5L277 97V225L250 230.222V142L229 165L207 142V238.538L171 245.5L111.5 234V97Z" fill="white"/>
<path d="M171 81.5L111.5 97V234L171 245.5M171 81.5V245.5M171 81.5L207 86.7642L229 119.5L246.226 92.5L277 97V225L250 230.222V142L229 165L207 142V238.538L171 245.5" stroke="#53199E" stroke-width="7"/>
<path d="M171 81V245.5L207 238.5V142L229 165L250 142V230.298L277 225V96.5L246.226 92L229 119L207 86.2642L171 81Z" fill="#53199E" stroke="#53199E" stroke-width="4"/>
<ellipse cx="140.833" cy="178.019" rx="19.1667" ry="26.9808" fill="#53199E"/>
<ellipse cx="140.833" cy="178.019" rx="14.1667" ry="19.9423" fill="white"/>
<rect x="120" y="144" width="45" height="18.7692" fill="white"/>
<path d="M128.333 158.077C128.416 157.988 125.833 160.759 125 162.769L131.667 162.769L133.333 160.423C133.813 158.908 134.008 156.666 131.667 155.731C130.266 155.636 130.198 156.084 128.333 158.077Z" fill="#53199E"/>
<path d="M153.45 158.085C154.581 159.673 155.863 160.763 156.667 162.769L150 162.769L148.333 160.423C147.87 158.911 147.975 156.676 150.234 155.743C151.585 155.648 151.651 156.095 153.45 158.085Z" fill="#53199E"/>
<rect x="138.333" y="151.038" width="5" height="23.4615" rx="2.5" fill="#53199E"/>
<path d="M119.156 114.264L119.152 117.55L163.844 109.286L163.848 106L119.156 114.264Z" fill="#53199E"/>
<path d="M119.156 107.264L119.152 110.55L163.844 101.5L163.844 97.5L119.156 107.264Z" fill="#53199E"/>
<path d="M323.064 236.28C310.179 236.28 300.579 233.635 294.264 228.344C288.035 223.053 284.92 215.16 284.92 204.664C284.92 194.168 288.035 186.275 294.264 180.984C300.579 175.693 310.179 173.048 323.064 173.048C348.579 173.048 361.336 183.587 361.336 204.664C361.336 225.741 348.579 236.28 323.064 236.28ZM323.064 214.136C325.283 214.136 326.947 213.453 328.056 212.088C329.165 210.723 329.72 208.248 329.72 204.664C329.72 201.08 329.165 198.605 328.056 197.24C326.947 195.875 325.283 195.192 323.064 195.192C320.931 195.192 319.309 195.875 318.2 197.24C317.091 198.605 316.536 201.08 316.536 204.664C316.536 208.248 317.091 210.723 318.2 212.088C319.309 213.453 320.931 214.136 323.064 214.136ZM393.842 236.28C388.125 236.28 383.09 235.299 378.738 233.336C374.471 231.373 371.143 228.216 368.754 223.864C366.365 219.512 365.17 213.752 365.17 206.584C365.17 198.989 366.45 192.717 369.01 187.768C371.57 182.819 375.069 179.149 379.506 176.76C384.029 174.285 389.191 173.048 394.994 173.048C397.213 173.048 399.559 173.261 402.034 173.688C404.509 174.115 406.557 174.669 408.178 175.352V148.728H439.154V235H412.274L410.866 231.032C408.647 232.653 406.173 233.933 403.442 234.872C400.797 235.811 397.597 236.28 393.842 236.28ZM402.802 214.136C403.997 214.136 404.978 213.965 405.746 213.624C406.514 213.283 407.325 212.813 408.178 212.216V197.112C406.642 195.832 404.85 195.192 402.802 195.192C400.925 195.192 399.431 196.131 398.322 198.008C397.298 199.885 396.786 202.659 396.786 206.328C396.786 209.997 397.298 212.216 398.322 212.984C399.431 213.752 400.925 214.136 402.802 214.136ZM448.105 235V152.568H479.081V211.448H512.745V235H448.105ZM536.046 236.28C532.206 236.28 528.665 235.597 525.422 234.232C522.179 232.867 519.577 230.691 517.614 227.704C515.651 224.717 514.67 220.835 514.67 216.056C514.67 209.229 516.803 204.067 521.07 200.568C525.422 197.069 532.078 195.32 541.038 195.32H554.606V194.68C554.606 193.741 553.71 192.931 551.918 192.248C550.126 191.48 547.395 191.096 543.726 191.096C540.483 191.096 536.942 191.395 533.102 191.992C529.347 192.504 525.763 193.272 522.35 194.296V177.656C525.678 176.205 529.902 175.096 535.022 174.328C540.227 173.475 545.177 173.048 549.87 173.048C556.611 173.048 562.542 173.987 567.662 175.864C572.782 177.656 576.793 180.472 579.694 184.312C582.595 188.067 584.046 192.888 584.046 198.776V235H556.91L555.63 230.648C553.582 232.269 550.937 233.635 547.694 234.744C544.537 235.768 540.654 236.28 536.046 236.28ZM547.694 219.384C549.315 219.384 550.638 219.128 551.662 218.616C552.771 218.104 553.753 217.421 554.606 216.568V210.936H548.974C545.134 210.936 543.214 212.344 543.214 215.16C543.214 217.976 544.707 219.384 547.694 219.384ZM637.667 236.28C633.998 236.28 630.798 235.811 628.067 234.872C625.336 233.933 622.862 232.653 620.643 231.032L619.235 235H592.355V148.728H623.331V175.352C624.952 174.669 627 174.115 629.475 173.688C631.95 173.261 634.296 173.048 636.515 173.048C645.902 173.048 653.198 175.395 658.403 180.088C663.694 184.781 666.339 192.803 666.339 204.152C666.339 214.989 663.694 223.053 658.403 228.344C653.198 233.635 646.286 236.28 637.667 236.28ZM628.707 214.136C630.584 214.136 632.035 213.496 633.059 212.216C634.168 210.851 634.723 208.333 634.723 204.664C634.723 200.995 634.168 198.52 633.059 197.24C632.035 195.875 630.584 195.192 628.707 195.192C626.659 195.192 624.867 195.832 623.331 197.112V212.216C624.184 212.813 624.995 213.283 625.763 213.624C626.616 213.965 627.598 214.136 628.707 214.136Z" fill="#53199E"/>
</svg>
