<svg width="421" height="364" viewBox="0 0 421 364" fill="none" xmlns="http://www.w3.org/2000/svg">
<g clip-path="url(#clip0_17_2)">
<path d="M111.5 135L171 119.5L207 124.764L229 157.5L246.226 130.5L277 135V263L250 268.222V180L229 203L207 180V276.538L171 283.5L111.5 272V135Z" fill="#F7B801"/>
<path d="M171 119.5L111.5 135V272L171 283.5M171 119.5V283.5M171 119.5L207 124.764L229 157.5L246.226 130.5L277 135V263L250 268.222V180L229 203L207 180V276.538L171 283.5" stroke="#F7B801" stroke-width="7"/>
<path d="M171 119V283.5L207 276.5V180L229 203L250 180V268.298L277 263V134.5L246.226 130L229 157L207 124.264L171 119Z" fill="#F7B801" stroke="#F7B801" stroke-width="4"/>
<ellipse cx="140.833" cy="216.019" rx="19.1667" ry="26.9808" fill="#53199E"/>
<ellipse cx="140.833" cy="216.019" rx="14.1667" ry="19.9423" fill="#F7B801"/>
<rect x="120" y="182" width="45" height="18.7692" fill="#F7B801"/>
<path d="M128.333 196.077C128.416 195.988 125.833 198.759 125 200.769L131.667 200.769L133.333 198.423C133.813 196.908 134.008 194.666 131.667 193.731C130.266 193.636 130.198 194.084 128.333 196.077Z" fill="#53199E"/>
<path d="M153.45 196.085C154.581 197.673 155.863 198.763 156.667 200.769L150 200.769L148.333 198.423C147.87 196.911 147.975 194.676 150.234 193.743C151.586 193.648 151.651 194.095 153.45 196.085Z" fill="#53199E"/>
<rect x="138.333" y="189.038" width="5" height="23.4615" rx="2.5" fill="#53199E"/>
<path d="M119.156 152.264L119.152 155.55L163.844 147.286L163.848 144L119.156 152.264Z" fill="#53199E"/>
<path d="M119.156 145.264L119.152 148.55L163.844 139.5L163.844 135.5L119.156 145.264Z" fill="#53199E"/>
</g>
<defs>
<clipPath id="clip0_17_2">
<rect width="421" height="364" fill="white"/>
</clipPath>
</defs>
</svg>
